<svg width="786" height="929" viewBox="0 0 786 929" fill="none" xmlns="http://www.w3.org/2000/svg">
<path d="M366.9 862.199C366.9 862.199 328.62 831.601 298.255 768.306C267.89 705.012 260.139 671.719 283.832 635.868C298.158 614.183 314.03 606.728 329.367 612.012C344.697 617.275 388.645 664.668 388.645 664.668C388.645 664.668 340.152 581.672 343.922 530.625C346.59 494.419 354.381 474.845 369.515 460.242C384.648 445.639 405.263 435.566 429.587 442.325C453.912 449.085 506.888 512.3 506.888 512.3C506.888 512.3 466.576 441.95 462.148 408.77C460.263 394.671 464.938 355.616 485.338 337.224C508.474 316.378 543 314.723 587.464 362.69C631.929 410.658 690.415 507.65 708.65 552.032C726.886 596.414 740.07 630.762 711.523 662.579C683.16 694.202 654.93 685.703 633.09 667.556C611.249 649.41 574.13 610.527 574.13 610.527C574.13 610.527 613.261 685.209 613.857 714.97C614.46 744.259 601.392 764.83 580.901 780.389C541.845 810.025 501.04 786.086 484.787 770.826C468.533 755.565 438.534 728.523 438.534 728.523C438.534 728.523 481.768 807.053 481.478 834.298C481.023 877.856 465.192 890.466 438.731 897.891C410.549 905.749 366.9 862.199 366.9 862.199Z" fill="#FF7640"/>
<path d="M366.538 372.457C327.975 413.258 287.82 427.377 249.912 438.349C226.618 445.167 157.095 457.396 111.267 464.955L106.685 372.133L181.128 357.018L182.367 356.735C190.975 354.585 234.893 342.866 257.866 326.146C289.192 303.177 304.404 276.287 307.281 238.693C309.93 204.248 308.482 165.408 257.562 141.016C220.781 123.34 181.932 124.374 158.758 125.075L152.403 125.237C140.279 125.393 112.271 126.76 91.1102 127.777L86.9137 37.4516C117.542 34.4898 168.504 30.4317 196.978 32.1875C204.411 32.6697 211.691 33.0404 218.901 33.3763C254.395 34.9759 285.056 36.4178 322.862 55.3552C344.496 66.1776 374.588 89.5775 388.4 119.952C405.307 157.273 412.382 194.597 410.758 237.309C408.936 285.867 404.12 332.739 366.538 372.457Z" fill="#BE5272"/>
</svg>
