<svg width="620" height="785" viewBox="0 0 620 785" fill="none" xmlns="http://www.w3.org/2000/svg">
<path d="M176.5 0C173.89 0 48.0187 0.28607 13.7618 107.956C-9.15963 179.992 -1.81119 244.751 23.7206 289.807C39.6512 317.914 93.4682 365.545 186.477 360.556C279.486 355.568 319.339 318.039 341.76 274.86C364.18 231.681 374.354 135.401 338.845 77.2391C309.577 29.2686 265.361 0 176.5 0Z" fill="#1DBF73"/>
<path d="M467.391 775.36L418.2 742.364L480.929 649.876C480.929 649.876 516.569 603.787 510.109 583.308C503.649 562.83 490.046 559.075 460.531 580.982C433.135 601.318 369.953 652.774 327.291 620.101C284.629 587.428 298.709 546.364 316.282 515.154C348.631 457.69 361.776 435.315 350.959 425.379C344.6 419.547 339.968 409.926 296.051 437.005C253.66 463.145 220.1 487.019 190.975 482.268C161.85 477.517 141.164 453.674 143.42 420.744C146.993 369.296 251.227 229.967 251.227 229.967L325.327 125.582L372.202 157.022L281.334 288.474C281.334 288.474 233.072 358.371 219.078 381.274C205.058 404.174 205.926 428.566 240.863 407.988C294.269 376.53 330.115 360.213 330.115 360.213C330.115 360.213 372.014 339.869 402.593 376.559C425.642 404.195 409.215 441.575 396.74 465.504C384.266 489.433 350.67 534.182 367.345 553.434C386.621 575.678 421.089 546.899 432.179 537.046C433.663 535.731 461.735 516.072 463.38 515.012C475.321 507.314 521.802 486.571 554.35 519.444C588.735 554.171 584.529 584.784 555.87 635.518C527.183 686.276 467.391 775.36 467.391 775.36Z" fill="#C7E200"/>
</svg>
